<?xml version="1.0" encoding="utf-8"?>
<!-- Generator: Adobe Illustrator 16.0.4, SVG Export Plug-In . SVG Version: 6.00 Build 0)  -->
<!DOCTYPE svg PUBLIC "-//W3C//DTD SVG 1.1//EN" "http://www.w3.org/Graphics/SVG/1.1/DTD/svg11.dtd">
<svg version="1.1" id="Layer_1" xmlns="http://www.w3.org/2000/svg" xmlns:xlink="http://www.w3.org/1999/xlink" x="0px" y="0px"
	 width="640px" height="280px" viewBox="0 0 640 280" enable-background="new 0 0 640 280" xml:space="preserve">
<g id="Layer_2">
	<g>
		<path fill="#99CCFF" d="M121.758,151.607l8.67,25.461c4.691,13.768,8.879,24.779,9.425,24.779c0.009,0,0.017-0.004,0.024-0.01
			c0.6-0.529,17.57-49.811,17.57-49.811h32.89l-39.68,115.619h-22.86c0,0-24.4-70.473-24.3-70.74l-25.47,69.852h-22.63
			l-39.18-115.15l32.73,0.021c0,0,17.929,50.82,18.168,50.82c0.001,0,0.001,0,0.002-0.002l17.89-50.84H121.758 M5.043,143.602
			l3.601,10.584l39.18,115.148l1.845,5.424h5.729h22.63h5.598l1.918-5.26l17.685-48.5c1.524,4.434,3.171,9.213,4.818,13.988
			c6.089,17.654,12.191,35.277,12.191,35.277l1.864,5.383h5.696h22.86h5.712l1.854-5.404l39.68-115.617l3.637-10.598h-11.204h-32.89
			h-5.706l-1.858,5.395c-2.974,8.635-6.921,20.031-10.296,29.676c-0.509-1.463-1.039-3-1.587-4.609l-8.669-25.461l-1.846-5.42
			h-5.727h-36.75h-5.666l-1.881,5.344l-10.453,29.707c-3.453-9.707-7.456-21.018-10.516-29.691l-1.882-5.334l-5.657-0.004
			l-32.73-0.021L5.043,143.602L5.043,143.602z"/>
	</g>
	<g>
		<path fill="#99CCFF" d="M628.298,151.158l-0.075,30.305c0,0-32.643-0.107-49.238-0.107c-5.521,0-9.267,0.012-9.444,0.045
			c-2.86,0.52-4.681,6.602-3.87,9.27c0.399,1.352,3.392,5.76,6.63,9.811c3.229,4.051,8.54,10.682,11.78,14.729
			c8.319,10.381,9.46,12.43,10.229,18.393c1.25,9.68-3.329,20.16-11.829,27.068c-8.519,6.932-8.146,6.98-71.384,6.98
			c-0.916,0-1.835,0-2.776,0c-38.46-0.01-58.8-0.33-61.761-0.99c-5.261-1.189-13.641-8.029-35.79-29.279
			c-7.968-7.637-15.31-14.322-15.687-14.324c-0.01,0-0.015,0.006-0.015,0.016l-0.261,44.58l-35.899-0.16l-0.221-114.98h45.271h34.79
			c24.13,0.871,40.46,24.91,37.21,40.24c-0.74,3.48-2.62,8.521-4.181,11.201c-3.21,5.5-11.38,12.559-18.011,15.59
			c-2.449,1.109-4.449,2.398-4.449,2.859c0,1.709,8.061,9.648,11.08,10.91c2.579,1.078,10.09,1.318,43.21,1.318
			c3.882,0,7.407,0.002,10.607,0.002c33.293,0,31.618-0.24,34.19-5.74c1.801-3.83,0.431-6.121-12.239-20.391
			c-16.051-15.971-14.37-23.621-14.479-29.271c-0.229-6.77,5.102-28.068,32.812-28.068L628.298,151.158 M413.228,204.279
			c15.37,0,18.49-0.24,21.762-1.66c11.04-4.801,11.63-18.98,1.04-25.271c-2.319-1.381-5.3-1.609-21.96-1.699l-19.279-0.102
			c0.159,0.15-0.061,27.57-0.061,27.57S399.558,204.279,413.228,204.279 M636.317,143.158h-8.021h-73.8
			c-16.032,0-25.515,6.328-30.646,11.637c-8.347,8.633-10.312,19.504-10.161,24.629c0.008,0.428,0.003,0.865-0.002,1.322
			c-0.073,8.33,1.153,17.758,16.658,33.246c3.065,3.453,8.193,9.24,10.131,12.115c-4.237,0.521-14.979,0.521-26.262,0.521h-4.792
			l-5.815-0.002c-19.904,0-36.688-0.057-40.129-0.736c-0.48-0.314-1.155-0.854-1.897-1.498c6.877-4.234,13.83-10.799,17.104-16.412
			c1.987-3.412,4.179-9.242,5.099-13.568c2.04-9.625-1.325-21.236-9.001-31.068c-8.956-11.471-21.985-18.334-35.746-18.83
			l-0.146-0.006h-0.145h-34.79h-45.271h-8.016l0.016,8.018l0.222,114.979l0.016,7.949l7.949,0.035l35.898,0.16l7.988,0.035
			l0.047-7.988l0.155-26.707c0.733,0.697,1.491,1.42,2.269,2.166c24.228,23.24,32.359,29.678,39.562,31.307
			c1.979,0.441,5.253,1.174,63.523,1.189h2.778c31.546,0,47.38,0,56.799-0.91c10.789-1.043,14.26-3.49,19.462-7.725l0.173-0.143
			c10.685-8.686,16.322-21.83,14.715-34.299c-1.048-8.111-3.194-11.48-11.922-22.369l-2.595-3.24
			c-3.039-3.799-6.713-8.387-9.175-11.475c-1.985-2.484-3.546-4.689-4.486-6.133c1.235-0.002,2.841-0.004,4.918-0.004
			c16.395,0,48.887,0.107,49.213,0.109l8.008,0.025l0.02-8.008l0.075-30.307L636.317,143.158L636.317,143.158z M402.779,195.986
			c0.013-2.021,0.024-4.287,0.038-6.557c0.01-2,0.019-4.004,0.021-5.84l11.188,0.059c6.429,0.035,16.103,0.088,17.988,0.623
			c2.407,1.461,3.75,3.719,3.604,6.059c-0.08,1.264-0.682,3.588-3.821,4.951c-1.75,0.76-4.54,0.998-18.569,0.998
			C408.778,196.279,405.345,196.15,402.779,195.986L402.779,195.986z"/>
	</g>
	<g>
		<path fill="#99CCFF" d="M285.948,150.688l40.29,115.92l-32.83,0.15l-5.45-17.41l-58.7-0.471l-5.18,17.432l-32.5-0.342
			l39.78-115.229L285.948,150.688 M259.547,167.684c-0.083,0.334-5.144,14.219-10.222,28.104c-5.12,14-10.257,28-10.328,28.109
			c0,0.002-0.001,0.002,0,0.002l0,0c0,0,0,0,0-0.002c0.136-0.039,18.316-0.08,29.968-0.08c5.453,0,9.475,0.01,9.55,0.029
			c0.001,0.004,0.001,0.006,0.001,0.006s0-0.002,0-0.004c0,0,0,0-0.001-0.002C278.311,223.316,259.606,168.359,259.547,167.684
			c0.001-0.004,0.001-0.006,0.001-0.006l0,0C259.547,167.678,259.547,167.68,259.547,167.684 M291.635,142.684l-5.693,0.004
			l-54.59,0.051l-5.696,0.006l-1.859,5.385l-39.78,115.23l-3.623,10.494l11.102,0.115l32.5,0.34l6.033,0.062l1.719-5.781
			l3.466-11.662l46.854,0.375l3.708,11.848l1.765,5.639l5.907-0.025l32.829-0.15l11.195-0.053l-3.677-10.574l-40.29-115.92
			L291.635,142.684L291.635,142.684z M250.512,215.824c1.515-4.129,3.556-9.709,6.327-17.289c0.869-2.375,1.664-4.551,2.393-6.545
			c0.663,1.957,1.385,4.084,2.169,6.398c0.646,1.906,3.485,10.27,5.92,17.428C260.081,215.816,254.631,215.818,250.512,215.824
			L250.512,215.824z"/>
	</g>
	<g>
		<path fill="#99CCFF" d="M299.528,12.329v28.6h-57.28v87.47h-34.15v-87.54l-66.86,0.19c-8.06,0-9.14,6.42-9.14,8.88
			c0,3.02,1.97,6.04,12.79,19.74c7.02,8.9,13.47,17.78,14.32,19.72c4.64,10.68-1.36,27.32-12.29,34.08
			c-7.79,4.813-6.459,4.931-64.308,4.931c-2.974,0-6.096,0-9.392,0h-62.27V96.27h97.9l2.89-2.01c1.95-1.36,3.08-3.23,3.51-5.79
			c0.6-3.68,0.29-4.16-11.8-17.78c-14.29-16.1-15.8-19.04-15.06-29.32c0.84-11.73,11.3-28.77,29.58-28.77L299.528,12.329
			 M307.528,4.317l-8.013,0.012l-181.56,0.27c-10.458,0-20.171,4.518-27.342,12.722c-5.814,6.652-9.63,15.429-10.206,23.477
			C79.434,54.309,82.544,59.191,97.463,76c4.33,4.877,8.447,9.516,9.821,11.486c-0.022,0.079-0.042,0.13-0.054,0.159
			c-0.015,0.012-0.038,0.03-0.07,0.052l-0.822,0.572h-95.39h-8v8v32.13v8h8h62.27h4.937h4.455c28.522,0,42.6-0.027,50.894-0.635
			c9.49-0.695,12.518-2.323,17.054-5.14l0.566-0.351c14.262-8.821,21.612-29.827,15.422-44.074
			c-1.91-4.358-14.003-19.746-15.376-21.486c-3.796-4.807-10.062-12.74-11.054-15.036c0.024-0.193,0.071-0.393,0.121-0.532
			c0.165-0.042,0.481-0.098,1.001-0.098l58.86-0.167v79.517v8h8h34.15h8v-8v-79.47h49.28h8v-8v-28.6V4.317L307.528,4.317z"/>
	</g>
	<g>
		<path fill="#99CCFF" d="M392.588,13.258l40.18,116.22l-32.77-0.18l-5.32-17.41l-58.438-0.26l-5.222,16.77h-33.369l39.74-115.14
			H392.588 M345.777,86.879l39.801-0.05c0.001,0,0.001,0.001,0.001,0.001c0.136,0-19.343-57.201-19.472-57.241l0,0
			C365.965,29.584,345.328,86.879,345.777,86.879 M398.287,5.258h-5.699h-55.199h-5.701l-1.86,5.39l-39.74,115.141l-3.662,10.61
			h11.225h33.37h5.89l1.75-5.623l3.461-11.121l46.632,0.207l3.599,11.774l1.722,5.629l5.887,0.033l32.771,0.18l11.297,0.062
			l-3.691-10.676l-40.18-116.22L398.287,5.258L398.287,5.258z M356.891,78.865c2.469-7.027,5.904-16.657,9.015-25.312
			c2.948,8.644,6.209,18.245,8.588,25.29L356.891,78.865L356.891,78.865z"/>
	</g>
	<g>
		<path fill="#99CCFF" d="M505.437,13.258c25.921,0,43.909,0.37,47.369,0.97c8,1.39,15.23,5.66,20.65,12.22
			c5.67,6.86,6.97,10.14,7.71,19.54c1.062,13.27-5.25,24.72-17.7,32.15c-3.63,2.17-7.358,4.28-8.29,4.7
			c-1.43,0.65-1.238,1.27,1.32,4.27c1.649,1.93,4.51,4.68,6.35,6.11l3.36,2.61l62.08,0.89l0.609,31.68h-38.062
			c-29.438,0-38.86-0.27-41.62-1.2c-4.13-1.4-14.068-9.82-34.271-29.04l-14.42-13.72l0.151,43.96h-37.043V13.258H505.437
			 M499.978,65.028h19.672c19.141,0,19.738-0.06,22.47-2.11c4.881-3.66,6.608-7.43,6.091-13.22c-0.53-5.97-2.83-9.08-8.601-11.58
			c-3.25-1.42-6.382-1.65-21.722-1.65h-17.91V65.028 M505.437,5.258h-41.801h-8v8v115.14v8h8h37.043h8.028l-0.028-8.028
			l-0.088-25.216l0.84,0.799c24.986,23.773,32.356,29.173,37.219,30.821c3.732,1.259,9.981,1.624,44.188,1.624h38.062h8.153
			l-0.155-8.154l-0.609-31.68l-0.148-7.734l-7.733-0.111l-59.402-0.851l-1.245-0.967c-0.396-0.309-0.876-0.717-1.389-1.179
			c0.446-0.264,0.854-0.507,1.207-0.717c15.003-8.953,22.866-23.407,21.569-39.653c-0.863-10.959-2.82-15.896-9.521-24
			c-6.584-7.969-15.621-13.298-25.447-15.005C548.718,5.4,521.297,5.258,505.437,5.258L505.437,5.258z M507.978,44.468h9.91
			c14.027,0,16.807,0.233,18.519,0.981c3.25,1.408,3.58,2.091,3.835,4.957c0.256,2.848-0.098,3.994-2.922,6.112
			c-0.094,0.069-0.164,0.123-0.224,0.166c-1.864,0.345-8.786,0.345-17.446,0.345h-11.67L507.978,44.468L507.978,44.468z"/>
	</g>
</g>
</svg>
